<svg width="1102" height="1080" viewBox="0 0 1102 1080" fill="none" xmlns="http://www.w3.org/2000/svg">
<path d="M551 270C317.183 270 127.648 455.658 127.648 684.692V809.1H254.654V726.161C254.654 691.804 283.082 663.958 318.157 663.958C335.683 663.958 351.559 670.925 363.053 682.183C374.547 693.442 381.659 708.993 381.659 726.161V809.1H508.665V767.631C508.665 676.025 584.487 601.754 678.005 601.754C771.524 601.754 847.346 676.025 847.346 767.631V809.1H974.352V684.692C974.352 455.658 784.817 270 551 270ZM318.157 601.754C283.082 601.754 254.654 573.907 254.654 539.55C254.654 505.193 283.082 477.346 318.157 477.346C353.231 477.346 381.659 505.193 381.659 539.55C381.659 573.907 353.231 601.754 318.157 601.754Z" fill="#F0F0F0"/>
</svg>
