<svg width="24" height="24" viewBox="0 0 24 24" fill="none" xmlns="http://www.w3.org/2000/svg">
<path d="M20.3103 14.7376L21.9389 14.4458L20.4628 12.7938L21.7406 12.0792L20.1235 10.8738L21.1636 8.37394H18.8889L19.4864 5.91828L17.0489 7.16787L17.7156 3.93095L15.2527 5.96254L14.9914 2.83728L13.1306 5.64995L11.9695 1.8999L10.8087 5.64995L8.94717 2.83728L8.68606 5.96254L6.22411 3.93095L6.89076 7.16787L4.45213 5.91828L5.05044 8.37374H2.77516L3.81493 10.8737L2.19814 12.0792L3.47587 12.7938L2 14.4458L3.62957 14.7376L2.51239 16.8671L3.9542 17.403L3.54124 18.7713L4.7125 18.5134L4.82935 20.2003L5.80301 19.7041L5.89134 21.2519L6.6665 20.9939C6.6665 20.9939 8.03812 22.418 10.7947 21.6939C11.1146 21.6099 11.3873 21.3882 11.5158 21.0827C11.6595 20.7449 11.6119 20.3352 10.6919 20.1838C9.07141 19.9178 6.82853 20.2306 6.01616 18.1957C6.01027 18.1813 6.00899 18.1656 6.01249 18.1506C6.01599 18.1355 6.02409 18.122 6.03569 18.1117C6.04727 18.1016 6.06175 18.0952 6.0771 18.0937C6.09247 18.0921 6.10792 18.0954 6.12134 18.103C7.1213 18.6693 9.46473 19.1803 9.65991 18.1102C9.86842 16.9705 8.86735 16.5936 8.30162 16.2816C7.73591 15.9696 5.16507 15.137 5.28451 13.6054C5.40394 12.0738 7.07555 12.4829 7.45462 12.7884C7.79628 13.0106 11.1716 15.0879 11.1716 15.0879C11.1716 15.0879 9.94768 16.7127 11.9695 16.7127C13.9912 16.7127 12.7679 15.0876 12.7679 15.0876C12.7679 15.0876 16.1423 13.0106 16.4847 12.7884C16.8638 12.4829 18.5361 12.0742 18.6544 13.6054C18.7727 15.1367 16.2011 15.9697 15.636 16.2818C15.0708 16.5938 14.07 16.9707 14.2777 18.1104C14.4736 19.18 16.8147 18.6698 17.8159 18.1036C17.8293 18.0958 17.8448 18.0926 17.8602 18.0941C17.8757 18.0956 17.8902 18.1019 17.9017 18.1122C17.9134 18.1223 17.9215 18.1359 17.925 18.151C17.9285 18.1661 17.9272 18.1819 17.9213 18.1962C17.11 20.2306 14.8672 19.9178 13.2472 20.1844C12.3276 20.3359 12.2796 20.7457 12.4237 21.0836C12.5533 21.3882 12.8241 21.6099 13.1441 21.6945C15.9014 22.4188 17.2735 20.9946 17.2735 20.9946L18.0483 21.2511L18.1359 19.7041L19.1089 20.2003L19.226 18.5134L20.397 18.7713L19.9853 17.4024L21.4271 16.8664L20.3103 14.7376ZM9.81287 12.571C9.5936 12.571 9.37924 12.5059 9.19691 12.3841C9.01458 12.2623 8.87249 12.0891 8.78857 11.8865C8.70468 11.684 8.68273 11.4611 8.72553 11.246C8.76831 11.0309 8.87392 10.8333 9.029 10.6783C9.18406 10.5233 9.38162 10.4177 9.59669 10.3749C9.81177 10.3322 10.0347 10.3542 10.2373 10.4381C10.4398 10.5221 10.613 10.6642 10.7348 10.8465C10.8566 11.0289 10.9216 11.2432 10.9216 11.4626C10.9217 11.6081 10.893 11.7524 10.8373 11.887C10.7817 12.0215 10.7 12.1438 10.597 12.2468C10.4941 12.3498 10.3718 12.4314 10.2373 12.4872C10.1027 12.5429 9.9585 12.571 9.81287 12.571ZM14.126 12.571C13.9068 12.571 13.6924 12.506 13.5101 12.3842C13.3277 12.2625 13.1856 12.0893 13.1017 11.8867C13.0177 11.6841 12.9957 11.4611 13.0385 11.2461C13.0812 11.031 13.1869 10.8334 13.3419 10.6784C13.497 10.5233 13.6946 10.4178 13.9096 10.3749C14.1247 10.3322 14.3476 10.3542 14.5502 10.4381C14.7529 10.522 14.9259 10.6642 15.0478 10.8465C15.1696 11.0288 15.2346 11.2432 15.2345 11.4626C15.2346 11.6081 15.206 11.7523 15.1503 11.8869C15.0947 12.0215 15.013 12.1437 14.9101 12.2467C14.8071 12.3497 14.6849 12.4314 14.5504 12.4871C14.4159 12.5429 14.2717 12.571 14.126 12.571Z" fill="#A3A3AD"/>
</svg>
