<svg width="34" height="27" viewBox="0 0 34 27" fill="none" xmlns="http://www.w3.org/2000/svg">
<g id="Vector">
<path d="M32.5604 15.8462C32.5604 7.09461 25.3487 0 16.4527 0C7.5567 0 5.22277e-06 7.09461 5.22277e-06 15.8462V25.7366C-0.000967669 26.072 0.134017 26.3939 0.375065 26.631C0.616114 26.8682 0.943328 27.001 1.28422 27H3.1188C3.4597 27.001 3.78691 26.8682 4.02796 26.631C4.26901 26.3939 4.40399 26.072 4.40301 25.7366V17.5211C4.40301 16.8234 4.97797 16.2577 5.68722 16.2577H8.29967C9.00892 16.2577 9.58388 16.8234 9.58388 17.5211V25.7366C9.5829 26.072 9.71789 26.3939 9.95894 26.631C10.2 26.8682 10.5272 27.001 10.8681 27H12.7027C13.0436 27.001 13.3708 26.8682 13.6118 26.631C13.8529 26.3939 13.9879 26.072 13.9869 25.7366V23.2424C13.9869 20.747 15.3401 18.4412 17.5368 17.1935C19.7335 15.9458 22.44 15.9458 24.6367 17.1935C26.8334 18.4412 28.1866 20.747 28.1866 23.2424V25.7366C28.1866 26.4344 28.7615 27 29.4708 27H31.2835C31.9928 27 32.5677 26.4344 32.5677 25.7366L32.5604 15.8462ZM9.272 12.4731C9.03169 12.8546 8.70207 13.1739 8.31068 13.4044C7.62868 13.7894 6.80973 13.8619 6.06882 13.603C5.96116 13.5702 5.85866 13.5228 5.76428 13.4622C4.91799 13.0051 4.39205 12.1307 4.39205 11.1809C4.39205 10.2311 4.91799 9.35675 5.76428 8.89962C5.86309 8.83756 5.97065 8.79012 6.08349 8.75884C7.04662 8.42571 8.11852 8.66097 8.84638 9.36526C9.35809 9.83017 9.64823 10.4848 9.64627 11.1701C9.64546 11.63 9.51598 12.0808 9.272 12.4731Z" fill="#B3B3B3"/>
<path d="M33.9927 15.8462C33.9927 7.09461 26.781 0 17.885 0C8.98899 0 1.43229 7.09461 1.43229 15.8462V25.7366C1.43132 26.072 1.5663 26.3939 1.80735 26.631C2.0484 26.8682 2.37562 27.001 2.71651 27H4.55109C4.89198 27.001 5.2192 26.8682 5.46025 26.631C5.70129 26.3939 5.83628 26.072 5.8353 25.7366V17.5211C5.8353 16.8234 6.41026 16.2577 7.11951 16.2577H9.73196C10.4412 16.2577 11.0162 16.8234 11.0162 17.5211V25.7366C11.0152 26.072 11.1502 26.3939 11.3912 26.631C11.6323 26.8682 11.9595 27.001 12.3004 27H14.135C14.4759 27.001 14.8031 26.8682 15.0441 26.631C15.2852 26.3939 15.4202 26.072 15.4192 25.7366V23.2424C15.4192 20.747 16.7724 18.4412 18.9691 17.1935C21.1658 15.9458 23.8722 15.9458 26.0689 17.1935C28.2656 18.4412 29.6189 20.747 29.6189 23.2424V25.7366C29.6189 26.4344 30.1938 27 30.9031 27H32.7158C33.425 27 34 26.4344 34 25.7366L33.9927 15.8462ZM10.7043 12.4731C10.464 12.8546 10.1344 13.1739 9.74297 13.4044C9.06097 13.7894 8.24202 13.8619 7.5011 13.603C7.39344 13.5702 7.29095 13.5228 7.19656 13.4622C6.35028 13.0051 5.82434 12.1307 5.82434 11.1809C5.82434 10.2311 6.35028 9.35675 7.19656 8.89962C7.29538 8.83756 7.40294 8.79012 7.51578 8.75884C8.47891 8.42571 9.55081 8.66097 10.2787 9.36526C10.7904 9.83017 11.0805 10.4848 11.0786 11.1701C11.0778 11.63 10.9483 12.0808 10.7043 12.4731Z" fill="#FCFCFC"/>
</g>
</svg>
