<svg width="1296" height="381" viewBox="0 0 1296 381" fill="none" xmlns="http://www.w3.org/2000/svg">
<path d="M1035.01 60.5C924.55 60.5 835.01 150.04 835.01 260.5V320.5H895.01V280.5C895.01 263.93 908.44 250.5 925.01 250.5C933.29 250.5 940.79 253.86 946.22 259.29C951.65 264.72 955.01 272.22 955.01 280.5V320.5H1015.01V300.5C1015.01 256.32 1050.83 220.5 1095.01 220.5C1139.19 220.5 1175.01 256.32 1175.01 300.5V320.5H1235.01V260.5C1235.01 150.04 1145.47 60.5 1035.01 60.5ZM925.01 220.5C908.44 220.5 895.01 207.07 895.01 190.5C895.01 173.93 908.44 160.5 925.01 160.5C941.58 160.5 955.01 173.93 955.01 190.5C955.01 207.07 941.58 220.5 925.01 220.5Z" fill="#EEEEEE"/>
<path d="M1035.01 60.5C924.55 60.5 835.01 150.04 835.01 260.5V320.5H895.01V280.5C895.01 263.93 908.44 250.5 925.01 250.5C933.29 250.5 940.79 253.86 946.22 259.29C951.65 264.72 955.01 272.22 955.01 280.5V320.5H1015.01V300.5C1015.01 256.32 1050.83 220.5 1095.01 220.5C1139.19 220.5 1175.01 256.32 1175.01 300.5V320.5H1235.01V260.5C1235.01 150.04 1145.47 60.5 1035.01 60.5ZM925.01 220.5C908.44 220.5 895.01 207.07 895.01 190.5C895.01 173.93 908.44 160.5 925.01 160.5C941.58 160.5 955.01 173.93 955.01 190.5C955.01 207.07 941.58 220.5 925.01 220.5Z" fill="#F0F0F0"/>
<path d="M237.05 95.77C217.12 85.59 194.33 80.5 168.67 80.5C129.24 80.5 101.43 90.82 85.2298 111.47C75.0498 124.66 69.3198 141.5 68.0298 162.01H127.17C128.6 152.98 131.47 145.81 135.77 140.51C141.79 133.34 152.04 129.76 166.52 129.76C179.42 129.76 189.21 131.59 195.88 135.25C202.54 138.9 205.88 145.54 205.88 155.14C205.88 163.03 201.5 168.83 192.76 172.56C187.89 174.71 179.78 176.51 168.46 177.94L147.6 180.52C123.94 183.53 106.02 188.55 93.8398 195.57C71.6198 208.47 60.5098 229.33 60.5098 258.15C60.5098 280.37 67.4298 297.54 81.2598 309.65C95.0898 321.76 112.62 327.82 133.84 327.82C150.47 327.82 165.38 324.02 178.57 316.42C189.61 309.97 199.35 302.16 207.82 292.98V320.51H266.96V153.42C266.96 125.18 256.99 105.97 237.07 95.79L237.05 95.77ZM205.66 229.32C205.23 249.82 199.46 263.94 188.35 271.68C177.24 279.42 165.09 283.29 151.9 283.29C143.58 283.29 136.56 280.92 130.83 276.19C124.95 271.6 122.01 264.08 122.01 253.61C122.01 241.86 126.74 233.18 136.2 227.59C141.79 224.29 151.04 221.5 163.94 219.2L177.7 216.62C184.58 215.33 189.99 213.93 193.93 212.43C197.87 210.93 201.78 208.96 205.65 206.52V229.31L205.66 229.32Z" fill="#F0F0F0"/>
<path d="M405.44 142.65C380.78 142.65 364.22 150.68 355.76 166.74C351.03 175.77 348.66 189.68 348.66 208.46V320.5H286.94V86.09H345.43V126.95C354.89 111.33 363.14 100.64 370.16 94.91C381.63 85.31 396.54 80.5 414.89 80.5C416.04 80.5 417 80.54 417.79 80.61C418.58 80.68 420.33 80.79 423.06 80.93V143.72C419.19 143.29 415.75 143 412.74 142.86C409.73 142.72 407.29 142.64 405.43 142.64L405.44 142.65Z" fill="#F0F0F0"/>
<path d="M535.02 159.49H472.87V320.5H535.02V159.49Z" fill="#F0F0F0"/>
<path d="M504.49 80.5H503.41C485.714 80.5 471.37 94.8448 471.37 112.54C471.37 130.235 485.714 144.58 503.41 144.58H504.49C522.185 144.58 536.53 130.235 536.53 112.54C536.53 94.8448 522.185 80.5 504.49 80.5Z" fill="#F0F0F0"/>
<path d="M764.83 117.42C784.61 142.03 794.51 171.12 794.51 204.69C794.51 238.26 784.62 268.03 764.83 292.28C745.05 316.54 715.01 328.66 674.73 328.66C634.45 328.66 604.41 316.53 584.63 292.28C564.85 268.03 554.95 238.83 554.95 204.69C554.95 170.55 564.84 142.03 584.63 117.42C604.41 92.81 634.45 80.5 674.73 80.5C715.01 80.5 745.05 92.81 764.83 117.42ZM674.51 131.93C656.59 131.93 642.79 138.22 633.11 150.82C623.44 163.41 618.6 181.37 618.6 204.7C618.6 228.03 623.44 246.03 633.11 258.69C642.79 271.35 656.58 277.68 674.51 277.68C692.44 277.68 706.19 271.35 715.8 258.69C725.4 246.03 730.21 228.04 730.21 204.7C730.21 181.36 725.4 163.41 715.8 150.82C706.19 138.23 692.43 131.93 674.51 131.93Z" fill="#F0F0F0"/>
<path d="M423.07 320.51C439.638 320.51 453.07 307.079 453.07 290.51C453.07 273.941 439.638 260.51 423.07 260.51C406.501 260.51 393.07 273.941 393.07 290.51C393.07 307.079 406.501 320.51 423.07 320.51Z" fill="#F0F0F0"/>
</svg>
