<svg width="20" height="20" viewBox="0 0 20 20" fill="none" xmlns="http://www.w3.org/2000/svg">
<g id="CaretRight">
<path id="Vector" d="M11.0675 10.4425L4.81753 16.6925C4.70026 16.8098 4.5412 16.8757 4.37535 16.8757C4.2095 16.8757 4.05044 16.8098 3.93316 16.6925C3.81588 16.5753 3.75 16.4162 3.75 16.2503C3.75 16.0845 3.81588 15.9254 3.93316 15.8082L9.74175 10.0003L3.93316 4.19253C3.81588 4.07526 3.75 3.9162 3.75 3.75035C3.75 3.5845 3.81588 3.42544 3.93316 3.30816C4.05044 3.19088 4.2095 3.125 4.37535 3.125C4.5412 3.125 4.70026 3.19088 4.81753 3.30816L11.0675 9.55816C11.1256 9.61621 11.1717 9.68514 11.2032 9.76101C11.2347 9.83688 11.2508 9.91821 11.2508 10.0003C11.2508 10.0825 11.2347 10.1638 11.2032 10.2397C11.1717 10.3156 11.1256 10.3845 11.0675 10.4425Z" fill="#8C8C8C"/>
</g>
</svg>