<svg width="20" height="20" viewBox="0 0 20 20" fill="none" xmlns="http://www.w3.org/2000/svg">
<g id="CheckSquare">
<path id="Vector" d="M13.5672 7.68281C13.6253 7.74086 13.6714 7.80979 13.7029 7.88566C13.7343 7.96154 13.7505 8.04287 13.7505 8.125C13.7505 8.20713 13.7343 8.28846 13.7029 8.36434C13.6714 8.44021 13.6253 8.50914 13.5672 8.56719L9.19219 12.9422C9.13414 13.0003 9.06521 13.0464 8.98934 13.0779C8.91346 13.1093 8.83213 13.1255 8.75 13.1255C8.66787 13.1255 8.58654 13.1093 8.51066 13.0779C8.43479 13.0464 8.36586 13.0003 8.30781 12.9422L6.43281 11.0672C6.31554 10.9499 6.24965 10.7909 6.24965 10.625C6.24965 10.4591 6.31554 10.3001 6.43281 10.1828C6.55009 10.0655 6.70915 9.99965 6.875 9.99965C7.04085 9.99965 7.19991 10.0655 7.31719 10.1828L8.75 11.6164L12.6828 7.68281C12.7409 7.6247 12.8098 7.5786 12.8857 7.54715C12.9615 7.5157 13.0429 7.49951 13.125 7.49951C13.2071 7.49951 13.2885 7.5157 13.3643 7.54715C13.4402 7.5786 13.5091 7.6247 13.5672 7.68281ZM17.5 3.75V16.25C17.5 16.5815 17.3683 16.8995 17.1339 17.1339C16.8995 17.3683 16.5815 17.5 16.25 17.5H3.75C3.41848 17.5 3.10054 17.3683 2.86612 17.1339C2.6317 16.8995 2.5 16.5815 2.5 16.25V3.75C2.5 3.41848 2.6317 3.10054 2.86612 2.86612C3.10054 2.6317 3.41848 2.5 3.75 2.5H16.25C16.5815 2.5 16.8995 2.6317 17.1339 2.86612C17.3683 3.10054 17.5 3.41848 17.5 3.75ZM16.25 16.25V3.75H3.75V16.25H16.25Z" fill="#34B36E"/>
</g>
</svg>
