<svg width="16" height="16" viewBox="0 0 16 16" fill="none" xmlns="http://www.w3.org/2000/svg">
<g id="Frame">
<path id="Vector" d="M5.33594 14H13.3359C13.6896 14 14.0287 13.8595 14.2787 13.6095C14.5288 13.3594 14.6693 13.0203 14.6693 12.6667V11.3333H6.66927V12.6667C6.66927 13.0203 6.52879 13.3594 6.27875 13.6095C6.0287 13.8595 5.68956 14 5.33594 14ZM5.33594 14C4.98232 14 4.64318 13.8595 4.39313 13.6095C4.14308 13.3594 4.0026 13.0203 4.0026 12.6667V3.33333C4.0026 2.97971 3.86213 2.64057 3.61208 2.39052C3.36203 2.14048 3.02289 2 2.66927 2C2.31565 2 1.97651 2.14048 1.72646 2.39052C1.47641 2.64057 1.33594 2.97971 1.33594 3.33333V5.33333H4.0026" stroke="#A3A3AD" stroke-linecap="round" stroke-linejoin="round"/>
<path id="Vector_2" d="M12.6641 11.3333V3.33333C12.6641 2.97971 12.5236 2.64057 12.2735 2.39052C12.0235 2.14048 11.6844 2 11.3307 2H2.66406" stroke="#A3A3AD" stroke-linecap="round" stroke-linejoin="round"/>
<path id="Vector_3" d="M9.9974 5.33301H6.66406" stroke="#A3A3AD" stroke-linecap="round" stroke-linejoin="round"/>
<path id="Vector_4" d="M9.9974 8H6.66406" stroke="#A3A3AD" stroke-linecap="round" stroke-linejoin="round"/>
</g>
</svg>
