<svg width="24" height="24" viewBox="0 0 24 24" fill="none" xmlns="http://www.w3.org/2000/svg">
<path d="M3 4C3 3.45228 3.45228 3 4 3H14C14.5477 3 15 3.45228 15 4C15 4.55228 15.4477 5 16 5C16.5523 5 17 4.55228 17 4C17 2.34772 15.6523 1 14 1H4C2.34772 1 1 2.34772 1 4V14C1 15.6523 2.34772 17 4 17C4.55228 17 5 16.5523 5 16C5 15.4477 4.55228 15 4 15C3.45228 15 3 14.5477 3 14V4Z" fill="#7F7F87"/>
<path fill-rule="evenodd" clip-rule="evenodd" d="M10 7C8.34315 7 7 8.34315 7 10V20C7 21.6569 8.34315 23 10 23H20C21.6569 23 23 21.6569 23 20V10C23 8.34315 21.6569 7 20 7H10ZM9 10C9 9.44771 9.44771 9 10 9H20C20.5523 9 21 9.44771 21 10V20C21 20.5523 20.5523 21 20 21H10C9.44771 21 9 20.5523 9 20V10Z" fill="#7F7F87"/>
</svg>
