<svg width="16" height="16" viewBox="0 0 16 16" fill="none" xmlns="http://www.w3.org/2000/svg">
<g id="Frame">
<path id="Vector" d="M1.33594 2H5.33594C6.04318 2 6.72146 2.28095 7.22156 2.78105C7.72165 3.28115 8.0026 3.95942 8.0026 4.66667V14C8.0026 13.4696 7.79189 12.9609 7.41682 12.5858C7.04175 12.2107 6.53304 12 6.0026 12H1.33594V2Z" stroke="#A3A3AD" stroke-linecap="round" stroke-linejoin="round"/>
<path id="Vector_2" d="M14.6667 2H10.6667C9.95942 2 9.28115 2.28095 8.78105 2.78105C8.28095 3.28115 8 3.95942 8 4.66667V14C8 13.4696 8.21071 12.9609 8.58579 12.5858C8.96086 12.2107 9.46957 12 10 12H14.6667V2Z" stroke="#A3A3AD" stroke-linecap="round" stroke-linejoin="round"/>
</g>
</svg>
