<svg width="12" height="12" viewBox="0 0 12 12" fill="none" xmlns="http://www.w3.org/2000/svg">
<g id="Frame">
<path id="Vector" d="M6 10H10.5" stroke="#A3A3AD" stroke-linecap="round" stroke-linejoin="round"/>
<path id="Vector_2" d="M8.25 1.75011C8.44891 1.5512 8.7187 1.43945 9 1.43945C9.13929 1.43945 9.27721 1.46689 9.4059 1.52019C9.53458 1.57349 9.65151 1.65162 9.75 1.75011C9.84849 1.8486 9.92662 1.96553 9.97992 2.09422C10.0332 2.2229 10.0607 2.36083 10.0607 2.50011C10.0607 2.6394 10.0332 2.77733 9.97992 2.90601C9.92662 3.0347 9.84849 3.15162 9.75 3.25011L3.5 9.50011L1.5 10.0001L2 8.00011L8.25 1.75011Z" stroke="#A3A3AD" stroke-linecap="round" stroke-linejoin="round"/>
<path id="Vector_3" d="M7.5 2.5L9 4" stroke="#A3A3AD" stroke-linecap="round" stroke-linejoin="round"/>
</g>
</svg>
