<svg width="20" height="20" viewBox="0 0 20 20" fill="none" xmlns="http://www.w3.org/2000/svg">
<path fill-rule="evenodd" clip-rule="evenodd" d="M17.5 3.75V16.25C17.5 16.5815 17.3683 16.8995 17.1339 17.1339C16.8995 17.3683 16.5815 17.5 16.25 17.5H3.75C3.41848 17.5 3.10054 17.3683 2.86612 17.1339C2.6317 16.8995 2.5 16.5815 2.5 16.25V3.75C2.5 3.41848 2.6317 3.10054 2.86612 2.86612C3.10054 2.6317 3.41848 2.5 3.75 2.5H16.25C16.5815 2.5 16.8995 2.6317 17.1339 2.86612C17.3683 3.10054 17.5 3.41848 17.5 3.75ZM16.25 16.25V3.75H3.75V16.25H16.25Z" fill="#DB4354"/>
<path d="M7.5 7.5L12.5 12.5Z" fill="#DB4354"/>
<path d="M12.9419 8.30522C13.186 8.06115 13.186 7.66542 12.9419 7.42134C12.6979 7.17726 12.3021 7.17726 12.0581 7.42134L10 9.4794L7.94194 7.42134C7.69786 7.17726 7.30214 7.17726 7.05806 7.42134C6.81398 7.66542 6.81398 8.06115 7.05806 8.30522L9.11612 10.3633L7.05806 12.4213C6.81398 12.6654 6.81398 13.0611 7.05806 13.3052C7.30214 13.5493 7.69786 13.5493 7.94194 13.3052L10 11.2472L12.0581 13.3052C12.3021 13.5493 12.6979 13.5493 12.9419 13.3052C13.186 13.0611 13.186 12.6654 12.9419 12.4213L10.8839 10.3633L12.9419 8.30522Z" fill="#DB4354"/>
</svg>
