<svg width="16" height="12" viewBox="0 0 16 12" fill="none" xmlns="http://www.w3.org/2000/svg">
<g id="Group">
<path id="Vector" d="M1.77797 11.3339H3.55594C4.53383 11.3339 5.33391 10.5338 5.33391 9.55594V7.77797C5.33391 6.80009 4.53383 6 3.55594 6H1.77797C0.800087 6 0 6.80009 0 7.77797V9.55594C0 10.5338 0.800087 11.3339 1.77797 11.3339Z" fill="url(#paint0_linear_1969_8278)"/>
<path id="Vector_2" d="M7.11196 5.99993H8.88993C9.86781 5.99993 10.6679 5.19984 10.6679 4.22196V2.44399C10.6679 1.4661 9.86781 0.666016 8.88993 0.666016H7.11196C6.13407 0.666016 5.33398 1.4661 5.33398 2.44399V4.22196C5.33398 5.19984 6.13407 5.99993 7.11196 5.99993Z" fill="url(#paint1_linear_1969_8278)"/>
<path id="Vector_3" d="M14.2239 11.3339H12.4459C11.4681 11.3339 10.668 10.5338 10.668 9.55594V7.77797C10.668 6.80009 11.4681 6 12.4459 6H14.2239C15.2018 6 16.0019 6.80009 16.0019 7.77797V9.55594C16.0019 10.5338 15.2018 11.3339 14.2239 11.3339Z" fill="url(#paint2_linear_1969_8278)"/>
<path id="Vector_4" d="M3.55273 6.0016C4.53062 6.0016 5.33071 5.20152 5.33071 4.22363C5.33071 5.20152 6.13079 6.0016 7.10868 6.0016C6.13079 6.0016 5.33071 6.80169 5.33071 7.77957C5.33071 6.80169 4.53062 6.0016 3.55273 6.0016Z" fill="url(#paint3_linear_1969_8278)"/>
<path id="Vector_5" d="M8.8916 6.0016C9.86949 6.0016 10.6696 5.20152 10.6696 4.22363C10.6696 5.20152 11.4697 6.0016 12.4475 6.0016C11.4697 6.0016 10.6696 6.80169 10.6696 7.77957C10.6696 6.80169 9.86949 6.0016 8.8916 6.0016Z" fill="url(#paint4_linear_1969_8278)"/>
</g>
<defs>
<linearGradient id="paint0_linear_1969_8278" x1="0.421987" y1="10.211" x2="5.38672" y2="10.0899" gradientUnits="userSpaceOnUse">
<stop stop-color="#F7C3A1"/>
<stop offset="0.52" stop-color="#EBAEC6"/>
<stop offset="1" stop-color="#DF9BE8"/>
</linearGradient>
<linearGradient id="paint1_linear_1969_8278" x1="5.75597" y1="4.877" x2="10.7207" y2="4.75591" gradientUnits="userSpaceOnUse">
<stop stop-color="#F7C3A1"/>
<stop offset="0.52" stop-color="#EBAEC6"/>
<stop offset="1" stop-color="#DF9BE8"/>
</linearGradient>
<linearGradient id="paint2_linear_1969_8278" x1="11.09" y1="10.211" x2="16.0547" y2="10.0899" gradientUnits="userSpaceOnUse">
<stop stop-color="#F7C3A1"/>
<stop offset="0.52" stop-color="#EBAEC6"/>
<stop offset="1" stop-color="#DF9BE8"/>
</linearGradient>
<linearGradient id="paint3_linear_1969_8278" x1="3.83406" y1="7.03096" x2="7.14388" y2="6.95023" gradientUnits="userSpaceOnUse">
<stop stop-color="#F7C3A1"/>
<stop offset="0.52" stop-color="#EBAEC6"/>
<stop offset="1" stop-color="#DF9BE8"/>
</linearGradient>
<linearGradient id="paint4_linear_1969_8278" x1="9.17293" y1="7.03096" x2="12.4827" y2="6.95023" gradientUnits="userSpaceOnUse">
<stop stop-color="#F7C3A1"/>
<stop offset="0.52" stop-color="#EBAEC6"/>
<stop offset="1" stop-color="#DF9BE8"/>
</linearGradient>
</defs>
</svg>
