<svg width="16" height="16" viewBox="0 0 16 16" fill="none" xmlns="http://www.w3.org/2000/svg">
<g id="Frame">
<path id="Vector" d="M8.14667 1.33398H7.85333C7.49971 1.33398 7.16057 1.47446 6.91053 1.72451C6.66048 1.97456 6.52 2.3137 6.52 2.66732V2.78732C6.51976 3.02113 6.45804 3.25078 6.34103 3.45321C6.22401 3.65564 6.05583 3.82374 5.85333 3.94065L5.56667 4.10732C5.36398 4.22434 5.13405 4.28595 4.9 4.28595C4.66595 4.28595 4.43603 4.22434 4.23333 4.10732L4.13333 4.05398C3.82738 3.87749 3.46389 3.82961 3.12267 3.92086C2.78145 4.0121 2.49037 4.23501 2.31333 4.54065L2.16667 4.79398C1.99018 5.09994 1.9423 5.46343 2.03354 5.80465C2.12478 6.14587 2.34769 6.43695 2.65333 6.61398L2.75333 6.68065C2.95485 6.79699 3.12241 6.96404 3.23937 7.16521C3.35632 7.36637 3.4186 7.59463 3.42 7.82732V8.16732C3.42093 8.40226 3.35977 8.63329 3.2427 8.83699C3.12563 9.04069 2.95681 9.20985 2.75333 9.32732L2.65333 9.38732C2.34769 9.56435 2.12478 9.85543 2.03354 10.1967C1.9423 10.5379 1.99018 10.9014 2.16667 11.2073L2.31333 11.4607C2.49037 11.7663 2.78145 11.9892 3.12267 12.0804C3.46389 12.1717 3.82738 12.1238 4.13333 11.9473L4.23333 11.894C4.43603 11.777 4.66595 11.7154 4.9 11.7154C5.13405 11.7154 5.36398 11.777 5.56667 11.894L5.85333 12.0607C6.05583 12.1776 6.22401 12.3457 6.34103 12.5481C6.45804 12.7505 6.51976 12.9802 6.52 13.214V13.334C6.52 13.6876 6.66048 14.0267 6.91053 14.2768C7.16057 14.5268 7.49971 14.6673 7.85333 14.6673H8.14667C8.50029 14.6673 8.83943 14.5268 9.08948 14.2768C9.33953 14.0267 9.48 13.6876 9.48 13.334V13.214C9.48024 12.9802 9.54196 12.7505 9.65898 12.5481C9.77599 12.3457 9.94418 12.1776 10.1467 12.0607L10.4333 11.894C10.636 11.777 10.866 11.7154 11.1 11.7154C11.3341 11.7154 11.564 11.777 11.7667 11.894L11.8667 11.9473C12.1726 12.1238 12.5361 12.1717 12.8773 12.0804C13.2186 11.9892 13.5096 11.7663 13.6867 11.4607L13.8333 11.2007C14.0098 10.8947 14.0577 10.5312 13.9665 10.19C13.8752 9.84876 13.6523 9.55769 13.3467 9.38065L13.2467 9.32732C13.0432 9.20985 12.8744 9.04069 12.7573 8.83699C12.6402 8.63329 12.5791 8.40226 12.58 8.16732V7.83398C12.5791 7.59904 12.6402 7.36802 12.7573 7.16431C12.8744 6.96061 13.0432 6.79146 13.2467 6.67398L13.3467 6.61398C13.6523 6.43695 13.8752 6.14587 13.9665 5.80465C14.0577 5.46343 14.0098 5.09994 13.8333 4.79398L13.6867 4.54065C13.5096 4.23501 13.2186 4.0121 12.8773 3.92086C12.5361 3.82961 12.1726 3.87749 11.8667 4.05398L11.7667 4.10732C11.564 4.22434 11.3341 4.28595 11.1 4.28595C10.866 4.28595 10.636 4.22434 10.4333 4.10732L10.1467 3.94065C9.94418 3.82374 9.77599 3.65564 9.65898 3.45321C9.54196 3.25078 9.48024 3.02113 9.48 2.78732V2.66732C9.48 2.3137 9.33953 1.97456 9.08948 1.72451C8.83943 1.47446 8.50029 1.33398 8.14667 1.33398Z" stroke="#A3A3AD" stroke-linecap="round" stroke-linejoin="round"/>
<path id="Vector_2" d="M8 10C9.10457 10 10 9.10457 10 8C10 6.89543 9.10457 6 8 6C6.89543 6 6 6.89543 6 8C6 9.10457 6.89543 10 8 10Z" stroke="#A3A3AD" stroke-linecap="round" stroke-linejoin="round"/>
</g>
</svg>
