<svg width="16" height="16" viewBox="0 0 16 16" fill="none" xmlns="http://www.w3.org/2000/svg">
<g id="Frame">
<path id="Vector" d="M11.332 9.33203H11.3387" stroke="url(#paint0_linear_2508_4936)" stroke-width="1.5" stroke-linecap="round" stroke-linejoin="round"/>
<path id="Vector_2" d="M4.66667 4.66667H12.6667C13.0203 4.66667 13.3594 4.80714 13.6095 5.05719C13.8595 5.30724 14 5.64638 14 6V12.6667C14 13.0203 13.8595 13.3594 13.6095 13.6095C13.3594 13.8595 13.0203 14 12.6667 14H3.33333C2.97971 14 2.64057 13.8595 2.39052 13.6095C2.14048 13.3594 2 13.0203 2 12.6667V3.33333C2 2.97971 2.14048 2.64057 2.39052 2.39052C2.64057 2.14048 2.97971 2 3.33333 2H12.6667" stroke="url(#paint1_linear_2508_4936)" stroke-linecap="round" stroke-linejoin="round"/>
</g>
<defs>
<linearGradient id="paint0_linear_2508_4936" x1="11.3326" y1="10.1215" x2="11.3388" y2="10.1215" gradientUnits="userSpaceOnUse">
<stop stop-color="#F7C3A1"/>
<stop offset="0.52" stop-color="#EBAEC6"/>
<stop offset="1" stop-color="#DF9BE8"/>
</linearGradient>
<linearGradient id="paint1_linear_2508_4936" x1="2.94937" y1="11.4737" x2="14.1188" y2="11.2013" gradientUnits="userSpaceOnUse">
<stop stop-color="#F7C3A1"/>
<stop offset="0.52" stop-color="#EBAEC6"/>
<stop offset="1" stop-color="#DF9BE8"/>
</linearGradient>
</defs>
</svg>
