<svg width="213" height="110" viewBox="0 0 213 110" fill="none" xmlns="http://www.w3.org/2000/svg">
<g id="Vector">
<path d="M52.125 52.125H182.625C188.393 52.125 193.926 54.4165 198.005 58.4954C202.083 62.5743 204.375 68.1065 204.375 73.875V182.625C204.375 188.393 202.083 193.926 198.005 198.005C193.926 202.083 188.393 204.375 182.625 204.375H30.375C24.6065 204.375 19.0743 202.083 14.9954 198.005C10.9165 193.926 8.625 188.393 8.625 182.625V30.375C8.625 24.6065 10.9165 19.0743 14.9954 14.9954C19.0743 10.9165 24.6065 8.625 30.375 8.625H182.625" stroke="#CACAD6" stroke-width="16.3125" stroke-linecap="round" stroke-linejoin="round"/>
<path d="M52.125 52.125H182.625C188.393 52.125 193.926 54.4165 198.005 58.4954C202.083 62.5743 204.375 68.1065 204.375 73.875V182.625C204.375 188.393 202.083 193.926 198.005 198.005C193.926 202.083 188.393 204.375 182.625 204.375H30.375C24.6065 204.375 19.0743 202.083 14.9954 198.005C10.9165 193.926 8.625 188.393 8.625 182.625V30.375C8.625 24.6065 10.9165 19.0743 14.9954 14.9954C19.0743 10.9165 24.6065 8.625 30.375 8.625H182.625" stroke="url(#paint0_linear_2508_6195)" stroke-opacity="0.7" stroke-width="16.3125" stroke-linecap="round" stroke-linejoin="round" style="mix-blend-mode:overlay"/>
</g>
<defs>
<linearGradient id="paint0_linear_2508_6195" x1="106.5" y1="8.625" x2="106.5" y2="204.375" gradientUnits="userSpaceOnUse">
<stop stop-opacity="0"/>
<stop offset="1"/>
</linearGradient>
</defs>
</svg>
