<svg width="153" height="117" viewBox="0 0 153 117" fill="none" xmlns="http://www.w3.org/2000/svg">
<g id="Frame 47535">
<g id="Vector">
<path d="M80 36L116.5 57V99L80 78L80 36Z" fill="#0C0C0D"/>
<path d="M116.22 57L152.72 36V78L116.22 99V57Z" fill="#131314"/>
<path d="M116.5 15L153 36L116.5 57L80 36L116.5 15Z" fill="#1D1D1F"/>
</g>
<g id="Vector_2">
<path d="M49 72L75 87V117L49 102L49 72Z" fill="#0C0C0D"/>
<path d="M74.8003 87L100.8 72V102L74.8003 117V87Z" fill="#131314"/>
<path d="M75 57L101 72L75 87L49 72L75 57Z" fill="#1D1D1F"/>
</g>
<g id="Vector_3">
<path d="M125 90L139 98V114L125 106L125 90Z" fill="#0C0C0D"/>
<path d="M138.892 98L152.892 90V106L138.892 114V98Z" fill="#131314"/>
<path d="M139 82L153 90L139 98L125 90L139 82Z" fill="#1D1D1F"/>
</g>
<g id="Vector_4">
<path d="M1.25921e-06 -2.75L49.4999 25.5V82L0 53.75L1.25921e-06 -2.75Z" fill="#0C0C0D"/>
<path d="M49.1198 25.5L98.6197 -2.75V53.75L49.1198 82V25.5Z" fill="#131314"/>
<path d="M49.5001 -31L99 -2.75L49.4999 25.5L1.25921e-06 -2.75L49.5001 -31Z" fill="#1D1D1F"/>
</g>
</g>
</svg>
