<svg width="32" height="32" viewBox="0 0 32 32" fill="none" xmlns="http://www.w3.org/2000/svg">
<g id="Frame">
<path id="Vector" d="M5.13359 11.4941C4.93898 10.6175 4.96886 9.7059 5.22047 8.8439C5.47207 7.9819 5.93725 7.19737 6.57288 6.56308C7.20851 5.92878 7.994 5.46524 8.85653 5.21544C9.71906 4.96564 10.6307 4.93767 11.5069 5.13411C11.9892 4.37985 12.6536 3.75913 13.4389 3.32916C14.2241 2.8992 15.105 2.67383 16.0003 2.67383C16.8955 2.67383 17.7764 2.8992 18.5617 3.32916C19.3469 3.75913 20.0113 4.37985 20.4936 5.13411C21.3711 4.93681 22.2844 4.96466 23.1483 5.21507C24.0122 5.46547 24.7987 5.9303 25.4347 6.56632C26.0707 7.20234 26.5356 7.98888 26.786 8.85278C27.0364 9.71669 27.0642 10.6299 26.8669 11.5074C27.6212 11.9897 28.2419 12.6541 28.6719 13.4394C29.1018 14.2246 29.3272 15.1055 29.3272 16.0008C29.3272 16.8961 29.1018 17.7769 28.6719 18.5622C28.2419 19.3474 27.6212 20.0118 26.8669 20.4941C27.0634 21.3703 27.0354 22.282 26.7856 23.1445C26.5358 24.007 26.0723 24.7925 25.438 25.4282C24.8037 26.0638 24.0191 26.529 23.1571 26.7806C22.2951 27.0322 21.3836 27.0621 20.5069 26.8674C20.0253 27.6246 19.3604 28.248 18.5738 28.6799C17.7872 29.1118 16.9043 29.3382 16.0069 29.3382C15.1096 29.3382 14.2267 29.1118 13.4401 28.6799C12.6535 28.248 11.9886 27.6246 11.5069 26.8674C10.6307 27.0639 9.71906 27.0359 8.85653 26.7861C7.994 26.5363 7.20851 26.0728 6.57288 25.4385C5.93725 24.8042 5.47207 24.0197 5.22047 23.1577C4.96886 22.2957 4.93898 21.3841 5.13359 20.5074C4.37353 20.0264 3.74748 19.361 3.31366 18.5731C2.87983 17.7851 2.65234 16.9003 2.65234 16.0008C2.65234 15.1013 2.87983 14.2164 3.31366 13.4285C3.74748 12.6406 4.37353 11.9751 5.13359 11.4941Z" stroke="url(#paint0_linear_1391_2499)" stroke-width="1.5" stroke-linecap="round" stroke-linejoin="round"/>
<path id="Vector_2" d="M12 16.0007L14.6667 18.6673L20 13.334" stroke="url(#paint1_linear_1391_2499)" stroke-width="1.5" stroke-linecap="round" stroke-linejoin="round"/>
</g>
<defs>
<linearGradient id="paint0_linear_1391_2499" x1="4.7627" y1="23.7247" x2="29.5913" y2="23.1188" gradientUnits="userSpaceOnUse">
<stop stop-color="#F7C3A1"/>
<stop offset="0.52" stop-color="#EBAEC6"/>
<stop offset="1" stop-color="#DF9BE8"/>
</linearGradient>
<linearGradient id="paint1_linear_1391_2499" x1="12.6329" y1="17.5445" x2="20.0737" y2="17.2723" gradientUnits="userSpaceOnUse">
<stop stop-color="#F7C3A1"/>
<stop offset="0.52" stop-color="#EBAEC6"/>
<stop offset="1" stop-color="#DF9BE8"/>
</linearGradient>
</defs>
</svg>
