<svg width="6" height="21" viewBox="0 0 6 21" fill="none" xmlns="http://www.w3.org/2000/svg">
<g id="Group 47393">
<path id="Vector" d="M5.83203 17.8319C5.83203 16.4512 4.71274 15.3319 3.33203 15.3319C1.95132 15.3319 0.832031 16.4512 0.832031 17.8319C0.832031 19.2126 1.95132 20.3319 3.33203 20.3319C4.71274 20.3319 5.83203 19.2126 5.83203 17.8319Z" fill="url(#paint0_linear_3724_127221)"/>
<path id="Vector_2" d="M5.83203 10.3319C5.83203 8.9512 4.71274 7.83191 3.33203 7.83191C1.95132 7.83191 0.832031 8.9512 0.832031 10.3319C0.832031 11.7126 1.95132 12.8319 3.33203 12.8319C4.71274 12.8319 5.83203 11.7126 5.83203 10.3319Z" fill="url(#paint1_linear_3724_127221)"/>
<path id="Vector_3" d="M5.83203 2.83191C5.83203 1.4512 4.71274 0.331909 3.33203 0.331909C1.95132 0.331909 0.832031 1.4512 0.832031 2.83191C0.832031 4.21262 1.95132 5.33191 3.33203 5.33191C4.71274 5.33191 5.83203 4.21262 5.83203 2.83191Z" fill="url(#paint2_linear_3724_127221)"/>
</g>
<defs>
<linearGradient id="paint0_linear_3724_127221" x1="4.7794" y1="19.9363" x2="4.66589" y2="15.2824" gradientUnits="userSpaceOnUse">
<stop stop-color="#F7C3A1"/>
<stop offset="0.52" stop-color="#EBAEC6"/>
<stop offset="1" stop-color="#DF9BE8"/>
</linearGradient>
<linearGradient id="paint1_linear_3724_127221" x1="4.7794" y1="12.4363" x2="4.66589" y2="7.78241" gradientUnits="userSpaceOnUse">
<stop stop-color="#F7C3A1"/>
<stop offset="0.52" stop-color="#EBAEC6"/>
<stop offset="1" stop-color="#DF9BE8"/>
</linearGradient>
<linearGradient id="paint2_linear_3724_127221" x1="4.7794" y1="4.93634" x2="4.66589" y2="0.282412" gradientUnits="userSpaceOnUse">
<stop stop-color="#F7C3A1"/>
<stop offset="0.52" stop-color="#EBAEC6"/>
<stop offset="1" stop-color="#DF9BE8"/>
</linearGradient>
</defs>
</svg>
