<svg width="20" height="20" viewBox="0 0 20 20" fill="none" xmlns="http://www.w3.org/2000/svg">
<g id="Frame">
<g id="Subtract">
<path fill-rule="evenodd" clip-rule="evenodd" d="M10 18C14.4183 18 18 14.4183 18 10C18 5.58172 14.4183 2 10 2C5.58172 2 2 5.58172 2 10C2 14.4183 5.58172 18 10 18ZM8.03033 6.96967C7.73744 6.67678 7.26256 6.67678 6.96967 6.96967C6.67678 7.26256 6.67678 7.73744 6.96967 8.03033L8.93934 10L6.96967 11.9697C6.67678 12.2626 6.67678 12.7374 6.96967 13.0303C7.26256 13.3232 7.73744 13.3232 8.03033 13.0303L10 11.0607L11.9697 13.0303C12.2626 13.3232 12.7374 13.3232 13.0303 13.0303C13.3232 12.7374 13.3232 12.2626 13.0303 11.9697L11.0607 10L13.0303 8.03033C13.3232 7.73744 13.3232 7.26256 13.0303 6.96967C12.7374 6.67678 12.2626 6.67678 11.9697 6.96967L10 8.93934L8.03033 6.96967Z" fill="#0E0E0F"/>
<path fill-rule="evenodd" clip-rule="evenodd" d="M10 18C14.4183 18 18 14.4183 18 10C18 5.58172 14.4183 2 10 2C5.58172 2 2 5.58172 2 10C2 14.4183 5.58172 18 10 18ZM8.03033 6.96967C7.73744 6.67678 7.26256 6.67678 6.96967 6.96967C6.67678 7.26256 6.67678 7.73744 6.96967 8.03033L8.93934 10L6.96967 11.9697C6.67678 12.2626 6.67678 12.7374 6.96967 13.0303C7.26256 13.3232 7.73744 13.3232 8.03033 13.0303L10 11.0607L11.9697 13.0303C12.2626 13.3232 12.7374 13.3232 13.0303 13.0303C13.3232 12.7374 13.3232 12.2626 13.0303 11.9697L11.0607 10L13.0303 8.03033C13.3232 7.73744 13.3232 7.26256 13.0303 6.96967C12.7374 6.67678 12.2626 6.67678 11.9697 6.96967L10 8.93934L8.03033 6.96967Z" fill="url(#paint0_linear_1969_6911)" fill-opacity="0.24"/>
</g>
</g>
<defs>
<linearGradient id="paint0_linear_1969_6911" x1="8" y1="2" x2="13" y2="18" gradientUnits="userSpaceOnUse">
<stop stop-color="#E2A1E0"/>
<stop offset="1"/>
</linearGradient>
</defs>
</svg>
