<svg width="24" height="24" viewBox="0 0 24 24" fill="none" xmlns="http://www.w3.org/2000/svg">
<path fill-rule="evenodd" clip-rule="evenodd" d="M10.4781 2.39428C10.9366 2.1271 11.4578 1.98633 11.9885 1.98633C12.5191 1.98633 13.0403 2.1271 13.4989 2.39428C13.9568 2.66112 14.3359 3.04451 14.5975 3.50542C14.5978 3.50601 14.5981 3.50659 14.5985 3.50717L22.5945 17.5002C22.5948 17.5008 22.5951 17.5013 22.5955 17.5019C22.858 17.9573 22.9963 18.4738 22.9964 18.9995C22.9965 19.5258 22.8582 20.0429 22.5953 20.4989C22.3323 20.9549 21.954 21.3336 21.4984 21.5971C21.0428 21.8607 20.5258 21.9997 19.9995 22.0002H4.00257C3.47536 22.0041 2.95641 21.869 2.49801 21.6084C2.03819 21.3471 1.65564 20.9688 1.38913 20.5119C1.12263 20.0551 0.981647 19.5359 0.980476 19.0069C0.979307 18.4789 1.11755 17.9598 1.38123 17.5023C1.38164 17.5016 1.38205 17.5009 1.38246 17.5002L9.37846 3.50717C9.3788 3.50659 9.37913 3.50601 9.37946 3.50542C9.64108 3.04451 10.0201 2.66112 10.4781 2.39428ZM11.9885 3.98633C11.8116 3.98633 11.6378 4.03325 11.485 4.12231C11.3322 4.21137 11.2057 4.33938 11.1185 4.49328L11.1167 4.49636L3.11448 18.5003C3.02632 18.653 2.98008 18.8262 2.98047 19.0025C2.98086 19.1788 3.02786 19.3519 3.11669 19.5042C3.20552 19.6565 3.33304 19.7826 3.48631 19.8697C3.63959 19.9568 3.81317 20.0019 3.98947 20.0003L3.99846 20.0002L19.9974 20.0002C20.1729 20 20.3452 19.9537 20.4971 19.8659C20.649 19.778 20.775 19.6518 20.8627 19.4998C20.9503 19.3478 20.9965 19.1754 20.9964 19C20.9964 18.8245 20.9502 18.6522 20.8624 18.5002L20.8602 18.4964L12.8602 4.49636L12.8585 4.49328C12.7712 4.33938 12.6448 4.21137 12.4919 4.12231C12.3391 4.03325 12.1654 3.98633 11.9885 3.98633ZM11.9985 8.00022C12.5507 8.00022 12.9985 8.44794 12.9985 9.00022V13.0002C12.9985 13.5525 12.5507 14.0002 11.9985 14.0002C11.4462 14.0002 10.9985 13.5525 10.9985 13.0002V9.00022C10.9985 8.44794 11.4462 8.00022 11.9985 8.00022ZM10.9985 17.0002C10.9985 16.4479 11.4462 16.0002 11.9985 16.0002H12.0085C12.5608 16.0002 13.0085 16.4479 13.0085 17.0002C13.0085 17.5525 12.5608 18.0002 12.0085 18.0002H11.9985C11.4462 18.0002 10.9985 17.5525 10.9985 17.0002Z" fill="url(#paint0_linear_3023_6650)"/>
<defs>
<linearGradient id="paint0_linear_3023_6650" x1="0.980469" y1="22.0003" x2="23.87" y2="20.9457" gradientUnits="userSpaceOnUse">
<stop stop-color="#FFB4B4"/>
<stop offset="1" stop-color="#FF6C6C"/>
</linearGradient>
</defs>
</svg>
