<svg width="20" height="20" viewBox="0 0 20 20" fill="none" xmlns="http://www.w3.org/2000/svg">
<g id="icon-WarningCircle">
<path id="Vector" d="M10 1.875C8.39303 1.875 6.82214 2.35152 5.486 3.24431C4.14985 4.1371 3.10844 5.40605 2.49348 6.8907C1.87852 8.37535 1.71762 10.009 2.03112 11.5851C2.34463 13.1612 3.11846 14.6089 4.25476 15.7452C5.39106 16.8815 6.8388 17.6554 8.4149 17.9689C9.99099 18.2824 11.6247 18.1215 13.1093 17.5065C14.594 16.8916 15.8629 15.8502 16.7557 14.514C17.6485 13.1779 18.125 11.607 18.125 10C18.1227 7.84581 17.266 5.78051 15.7427 4.25727C14.2195 2.73403 12.1542 1.87727 10 1.875ZM10 16.875C8.64026 16.875 7.31105 16.4718 6.18046 15.7164C5.04987 14.9609 4.16868 13.8872 3.64833 12.6309C3.12798 11.3747 2.99183 9.99237 3.2571 8.65875C3.52238 7.32513 4.17716 6.10013 5.13864 5.13864C6.10013 4.17716 7.32514 3.52237 8.65876 3.2571C9.99238 2.99183 11.3747 3.12798 12.631 3.64833C13.8872 4.16868 14.9609 5.04987 15.7164 6.18045C16.4718 7.31104 16.875 8.64025 16.875 10C16.8729 11.8227 16.1479 13.5702 14.8591 14.8591C13.5702 16.1479 11.8227 16.8729 10 16.875ZM9.375 10.625V6.25C9.375 6.08424 9.44085 5.92527 9.55806 5.80806C9.67527 5.69085 9.83424 5.625 10 5.625C10.1658 5.625 10.3247 5.69085 10.4419 5.80806C10.5592 5.92527 10.625 6.08424 10.625 6.25V10.625C10.625 10.7908 10.5592 10.9497 10.4419 11.0669C10.3247 11.1842 10.1658 11.25 10 11.25C9.83424 11.25 9.67527 11.1842 9.55806 11.0669C9.44085 10.9497 9.375 10.7908 9.375 10.625ZM10.9375 13.4375C10.9375 13.6229 10.8825 13.8042 10.7795 13.9583C10.6765 14.1125 10.5301 14.2327 10.3588 14.3036C10.1875 14.3746 9.99896 14.3932 9.81711 14.357C9.63525 14.3208 9.4682 14.2315 9.33709 14.1004C9.20598 13.9693 9.11669 13.8023 9.08052 13.6204C9.04434 13.4385 9.06291 13.25 9.13387 13.0787C9.20482 12.9074 9.32499 12.761 9.47916 12.658C9.63333 12.555 9.81458 12.5 10 12.5C10.2486 12.5 10.4871 12.5988 10.6629 12.7746C10.8387 12.9504 10.9375 13.1889 10.9375 13.4375Z" fill="url(#paint0_linear_2526_3331)"/>
</g>
<defs>
<linearGradient id="paint0_linear_2526_3331" x1="1.875" y1="18.125" x2="18.776" y2="17.4171" gradientUnits="userSpaceOnUse">
<stop stop-color="#FFB4B4"/>
<stop offset="1" stop-color="#FF6C6C"/>
</linearGradient>
</defs>
</svg>
